<?xml version="1.0" standalone="no"?><!DOCTYPE svg PUBLIC "-//W3C//DTD SVG 1.1//EN" "http://www.w3.org/Graphics/SVG/1.1/DTD/svg11.dtd"><svg class="icon" width="200px" height="186.69px" viewBox="0 0 1097 1024" version="1.1" xmlns="http://www.w3.org/2000/svg"><path d="M1054.94057 158.5H783.72657V42.863A42.642 42.642 0 0 0 741.30457 0H355.54857a42.423 42.423 0 0 0-42.203 42.642v115.859H42.20557A42.423 42.423 0 0 0 0.00057 201.143v780.215A42.423 42.423 0 0 0 42.20457 1024H1054.94057a42.423 42.423 0 0 0 42.204-42.642V201.143a42.423 42.423 0 0 0-42.204-42.642zM391.82757 79.215h313.49v79.213h-313.49V79.214z m626.98 871.643H78.26557V475.43h156.745v79.213h78.336V475.43H783.58057v79.213h78.336V475.43h156.745v475.428z m0-554.715H862.06357v-39.57h-78.336v39.57H313.49157v-39.57h-78.41v39.57H78.33857V237.714h940.544v158.428z" /></svg>